<svg width="168" height="56" viewBox="0 0 168 56" fill="none" xmlns="http://www.w3.org/2000/svg">
<rect width="168" height="56" rx="7" fill="#0B2253"/>
<path d="M101.71 24.5696V27.0897H100.13V28.7424H101.71V34.3579C101.71 36.2754 102.577 37.0424 104.759 37.0424C105.143 37.0424 105.508 36.9967 105.828 36.9419V35.3075C105.554 35.3349 105.38 35.3532 105.079 35.3532C104.102 35.3532 103.673 34.8966 103.673 33.8557V28.7424H105.828V27.0897H103.673V24.5696H101.71Z" fill="white"/>
<path d="M111.387 37.1793C114.29 37.1793 116.071 35.2345 116.071 32.0113C116.071 28.8063 114.281 26.8523 111.387 26.8523C108.483 26.8523 106.694 28.8063 106.694 32.0113C106.694 35.2345 108.474 37.1793 111.387 37.1793ZM111.387 35.4353C109.679 35.4353 108.721 34.1844 108.721 32.0113C108.721 29.8564 109.679 28.5963 111.387 28.5963C113.085 28.5963 114.053 29.8564 114.053 32.0113C114.053 34.1753 113.085 35.4353 111.387 35.4353Z" fill="white"/>
<path d="M117.594 36.9876H119.558V31.1165C119.558 29.7194 120.608 28.779 122.096 28.779C122.443 28.779 123.027 28.8429 123.192 28.8977V26.9619C122.982 26.9071 122.607 26.8797 122.315 26.8797C121.018 26.8797 119.914 27.5919 119.631 28.5689H119.484V27.0441H117.594V36.9876Z" fill="white"/>
<path d="M128.066 28.5233C129.518 28.5233 130.467 29.5368 130.513 31.0982H125.491C125.601 29.5459 126.614 28.5233 128.066 28.5233ZM130.504 34.3031C130.139 35.0792 129.326 35.5084 128.139 35.5084C126.569 35.5084 125.555 34.4036 125.491 32.6596V32.55H132.513V31.8652C132.513 28.7424 130.842 26.8523 128.075 26.8523C125.272 26.8523 123.491 28.8703 123.491 32.0478C123.491 35.2253 125.235 37.1793 128.084 37.1793C130.358 37.1793 131.947 36.0836 132.394 34.3031H130.504Z" fill="white"/>
<path d="M88.8357 33.3156C88.9871 35.7573 91.0218 37.3188 94.0503 37.3188C97.2869 37.3188 99.3122 35.6816 99.3122 33.0696C99.3122 31.0159 98.1576 29.8802 95.3563 29.2272L93.8515 28.8581C92.0723 28.4417 91.353 27.8834 91.353 26.9086C91.353 25.6783 92.4698 24.8738 94.1449 24.8738C95.7348 24.8738 96.8326 25.6593 97.0314 26.918H99.0945C98.9715 24.6183 96.9462 23 94.1733 23C91.1922 23 89.2048 24.6183 89.2048 27.0505C89.2048 29.0569 90.3309 30.2493 92.801 30.8266L94.5613 31.2525C96.3689 31.6784 97.1639 32.303 97.1639 33.344C97.1639 34.5554 95.9146 35.4355 94.2111 35.4355C92.3846 35.4355 91.1164 34.6122 90.9366 33.3156H88.8357Z" fill="white"/>
<path d="M68.4996 26.8797C67.1482 26.8797 65.9795 27.5554 65.3768 28.6876H65.2307V27.0441H63.3407V40.293H65.3038V35.481H65.459C65.9795 36.5311 67.1026 37.152 68.5179 37.152C71.0288 37.152 72.6267 35.1706 72.6267 32.0113C72.6267 28.852 71.0288 26.8797 68.4996 26.8797ZM67.9426 35.3897C66.2991 35.3897 65.2673 34.0931 65.2673 32.0204C65.2673 29.9386 66.2991 28.642 67.9517 28.642C69.6136 28.642 70.6088 29.9112 70.6088 32.0113C70.6088 34.1205 69.6136 35.3897 67.9426 35.3897Z" fill="white"/>
<path d="M79.4961 26.8797C78.1447 26.8797 76.976 27.5554 76.3733 28.6876H76.2272V27.0441H74.3371V40.293H76.3003V35.481H76.4555C76.976 36.5311 78.099 37.152 79.5143 37.152C82.0253 37.152 83.6232 35.1706 83.6232 32.0113C83.6232 28.852 82.0253 26.8797 79.4961 26.8797ZM78.9391 35.3897C77.2955 35.3897 76.2637 34.0931 76.2637 32.0204C76.2637 29.9386 77.2955 28.642 78.9482 28.642C80.61 28.642 81.6053 29.9112 81.6053 32.0113C81.6053 34.1205 80.61 35.3897 78.9391 35.3897Z" fill="white"/>
<path d="M59.8185 36.9876H62.0709L57.1402 23.3312H54.8594L49.9287 36.9876H52.1054L53.3641 33.3629H58.5692L59.8185 36.9876ZM55.8909 25.8108H56.0518L58.0298 31.5837H53.9035L55.8909 25.8108Z" fill="white"/>
<path d="M39.277 27.7384C39.3009 25.8893 40.2939 24.1396 41.8693 23.1711C40.8754 21.7518 39.2108 20.8519 37.479 20.7977C35.6318 20.6038 33.8411 21.903 32.8998 21.903C31.9403 21.903 30.491 20.8169 28.9304 20.849C26.8963 20.9148 24.9999 22.0713 24.0102 23.8497C21.8828 27.533 23.4697 32.9461 25.5076 35.9234C26.5271 37.3813 27.7188 39.0098 29.2779 38.952C30.8037 38.8887 31.3736 37.9791 33.2153 37.9791C35.0399 37.9791 35.5746 38.952 37.1654 38.9153C38.8026 38.8887 39.8341 37.4509 40.8179 35.9792C41.5505 34.9404 42.1142 33.7924 42.4882 32.5775C40.5642 31.7637 39.2793 29.8274 39.277 27.7384Z" fill="white"/>
<path d="M36.2722 18.8397C37.1649 17.7681 37.6047 16.3907 37.4982 15C36.1344 15.1432 34.8746 15.7951 33.9698 16.8256C33.0851 17.8324 32.6247 19.1856 32.7118 20.5231C34.0761 20.5371 35.4173 19.903 36.2722 18.8397Z" fill="white"/>
</svg>
