<svg width="189" height="56" viewBox="0 0 189 56" fill="none" xmlns="http://www.w3.org/2000/svg">
<rect width="189" height="56" rx="5" fill="#0B2253"/>
<path d="M89.9794 26.1744C87.3922 26.1744 85.2835 28.1423 85.2835 30.8527C85.2835 33.5466 87.3922 35.531 89.9794 35.531C92.5677 35.531 94.6764 33.5466 94.6764 30.8527C94.6753 28.1423 92.5666 26.1744 89.9794 26.1744ZM89.9794 33.6896C88.5615 33.6896 87.3394 32.5203 87.3394 30.8538C87.3394 29.1697 88.5626 28.018 89.9794 28.018C91.3973 28.018 92.6194 29.1697 92.6194 30.8538C92.6194 32.5192 91.3973 33.6896 89.9794 33.6896ZM79.734 26.1744C77.1468 26.1744 75.0381 28.1423 75.0381 30.8527C75.0381 33.5466 77.1468 35.531 79.734 35.531C82.3223 35.531 84.431 33.5466 84.431 30.8527C84.431 28.1423 82.3223 26.1744 79.734 26.1744ZM79.734 33.6896C78.3161 33.6896 77.094 32.5203 77.094 30.8538C77.094 29.1697 78.3172 28.018 79.734 28.018C81.1519 28.018 82.374 29.1697 82.374 30.8538C82.3751 32.5192 81.1519 33.6896 79.734 33.6896ZM67.5482 27.611V29.5954H72.298C72.1561 30.7119 71.7843 31.527 71.2167 32.0935C70.5259 32.7843 69.4446 33.5466 67.5482 33.5466C64.6244 33.5466 62.3386 31.1893 62.3386 28.2655C62.3386 25.3417 64.6244 22.9844 67.5482 22.9844C69.1256 22.9844 70.2773 23.6048 71.1276 24.4023L72.5279 23.002C71.3399 21.8679 69.7636 21 67.5482 21C63.5431 21 60.176 24.2604 60.176 28.2655C60.176 32.2706 63.5431 35.531 67.5482 35.531C69.7097 35.531 71.341 34.8215 72.6159 33.4927C73.9271 32.1815 74.3352 30.3379 74.3352 28.8496C74.3352 28.3898 74.3 27.9641 74.2285 27.6099H67.5482V27.611ZM117.387 29.1521C116.998 28.1071 115.81 26.1744 113.382 26.1744C110.972 26.1744 108.969 28.0708 108.969 30.8527C108.969 33.4751 110.954 35.531 113.612 35.531C115.756 35.531 116.997 34.2198 117.511 33.4575L115.916 32.3938C115.385 33.1737 114.658 33.6874 113.612 33.6874C112.567 33.6874 111.822 33.2089 111.344 32.2695L117.599 29.6823L117.387 29.1521ZM111.007 30.7119C110.954 28.9035 112.407 27.9828 113.453 27.9828C114.269 27.9828 114.959 28.3909 115.19 28.975L111.007 30.7119ZM105.922 35.2483H107.977V21.4972H105.922V35.2483ZM102.554 27.2205H102.483C102.022 26.6705 101.136 26.1744 100.02 26.1744C97.6805 26.1744 95.5366 28.2303 95.5366 30.8714C95.5366 33.4938 97.6805 35.5321 100.02 35.5321C101.137 35.5321 102.022 35.036 102.483 34.4695H102.554V35.1427C102.554 36.9324 101.597 37.8894 100.055 37.8894C98.797 37.8894 98.0171 36.9863 97.6981 36.224L95.9084 36.9687C96.4221 38.2084 97.7861 39.733 100.055 39.733C102.466 39.733 104.504 38.3151 104.504 34.8589V26.4593H102.555V27.2205H102.554ZM100.197 33.6896C98.7794 33.6896 97.5925 32.5016 97.5925 30.8714C97.5925 29.2225 98.7794 28.018 100.197 28.018C101.597 28.018 102.695 29.2225 102.695 30.8714C102.695 32.5016 101.597 33.6896 100.197 33.6896ZM127.016 21.4972H122.098V35.2483H124.15V30.0387H127.015C129.29 30.0387 131.528 28.392 131.528 25.7685C131.528 23.145 129.291 21.4972 127.016 21.4972ZM127.069 28.1247H124.15V23.4112H127.069C128.604 23.4112 129.475 24.6817 129.475 25.7685C129.475 26.8333 128.604 28.1247 127.069 28.1247ZM139.754 26.1502C138.268 26.1502 136.729 26.8047 136.093 28.2556L137.914 29.0157C138.304 28.2556 139.03 28.007 139.79 28.007C140.851 28.007 141.93 28.6439 141.948 29.7758V29.9177C141.576 29.7054 140.78 29.3875 139.807 29.3875C137.844 29.3875 135.844 30.4666 135.844 32.4829C135.844 34.3232 137.454 35.5079 139.258 35.5079C140.638 35.5079 141.399 34.8886 141.876 34.1626H141.947V35.2241H143.929V29.9518C143.93 27.512 142.106 26.1502 139.754 26.1502ZM139.506 33.6863C138.835 33.6863 137.897 33.3497 137.897 32.5181C137.897 31.4566 139.065 31.0496 140.073 31.0496C140.974 31.0496 141.4 31.2443 141.948 31.5094C141.788 32.7843 140.692 33.6863 139.506 33.6863ZM151.147 26.4505L148.794 32.4125H148.724L146.282 26.4505H144.071L147.733 34.783L145.645 39.4184H147.786L153.43 26.4505H151.147ZM132.661 35.2483H134.712V21.4972H132.661V35.2483Z" fill="white"/>
<g filter="url(#filter0_ii_1_1203)">
<path d="M26.5093 14.4368C26.1892 14.7756 26 15.3014 26 15.9823V40.3099C26 40.9919 26.1892 41.5166 26.5093 41.8554L26.5907 41.9346L40.2186 28.3067V28.1461V27.9855L26.5907 14.3565L26.5093 14.4368Z" fill="url(#paint0_linear_1_1203)"/>
<path d="M44.7605 32.8508L40.2186 28.3067V28.1461V27.9855L44.7616 23.4425L44.8639 23.5008L50.2462 26.5588C51.7829 27.4322 51.7829 28.8611 50.2462 29.7356L44.8639 32.7936L44.7605 32.8508Z" fill="url(#paint1_linear_1_1203)"/>
<g filter="url(#filter1_i_1_1203)">
<path d="M44.8639 32.7925L40.2175 28.1461L26.5093 41.8554C27.0153 42.3922 27.8524 42.4582 28.7951 41.9236L44.8639 32.7925Z" fill="url(#paint2_linear_1_1203)"/>
</g>
<path d="M44.8639 23.4997L28.7951 14.3697C27.8524 13.834 27.0153 13.9011 26.5093 14.4379L40.2186 28.1472L44.8639 23.4997Z" fill="url(#paint3_linear_1_1203)"/>
</g>
<defs>
<filter id="filter0_ii_1_1203" x="26" y="14" width="25.3987" height="28.2928" filterUnits="userSpaceOnUse" color-interpolation-filters="sRGB">
<feFlood flood-opacity="0" result="BackgroundImageFix"/>
<feBlend mode="normal" in="SourceGraphic" in2="BackgroundImageFix" result="shape"/>
<feColorMatrix in="SourceAlpha" type="matrix" values="0 0 0 0 0 0 0 0 0 0 0 0 0 0 0 0 0 0 127 0" result="hardAlpha"/>
<feOffset dy="-0.15"/>
<feComposite in2="hardAlpha" operator="arithmetic" k2="-1" k3="1"/>
<feColorMatrix type="matrix" values="0 0 0 0 0 0 0 0 0 0 0 0 0 0 0 0 0 0 0.12 0"/>
<feBlend mode="normal" in2="shape" result="effect1_innerShadow_1_1203"/>
<feColorMatrix in="SourceAlpha" type="matrix" values="0 0 0 0 0 0 0 0 0 0 0 0 0 0 0 0 0 0 127 0" result="hardAlpha"/>
<feOffset dy="0.15"/>
<feComposite in2="hardAlpha" operator="arithmetic" k2="-1" k3="1"/>
<feColorMatrix type="matrix" values="0 0 0 0 1 0 0 0 0 1 0 0 0 0 1 0 0 0 0.25 0"/>
<feBlend mode="normal" in2="effect1_innerShadow_1_1203" result="effect2_innerShadow_1_1203"/>
</filter>
<filter id="filter1_i_1_1203" x="26.5093" y="28.1461" width="18.3546" height="14.1467" filterUnits="userSpaceOnUse" color-interpolation-filters="sRGB">
<feFlood flood-opacity="0" result="BackgroundImageFix"/>
<feBlend mode="normal" in="SourceGraphic" in2="BackgroundImageFix" result="shape"/>
<feColorMatrix in="SourceAlpha" type="matrix" values="0 0 0 0 0 0 0 0 0 0 0 0 0 0 0 0 0 0 127 0" result="hardAlpha"/>
<feOffset dy="-0.15"/>
<feComposite in2="hardAlpha" operator="arithmetic" k2="-1" k3="1"/>
<feColorMatrix type="matrix" values="0 0 0 0 0 0 0 0 0 0 0 0 0 0 0 0 0 0 0.08 0"/>
<feBlend mode="normal" in2="shape" result="effect1_innerShadow_1_1203"/>
</filter>
<linearGradient id="paint0_linear_1_1203" x1="39.0106" y1="15.7249" x2="20.5504" y2="34.1851" gradientUnits="userSpaceOnUse">
<stop stop-color="#00A0FF"/>
<stop offset="0.0066" stop-color="#00A1FF"/>
<stop offset="0.2601" stop-color="#00BEFF"/>
<stop offset="0.5122" stop-color="#00D2FF"/>
<stop offset="0.7604" stop-color="#00DFFF"/>
<stop offset="1" stop-color="#00E3FF"/>
</linearGradient>
<linearGradient id="paint1_linear_1_1203" x1="52.2465" y1="28.1461" x2="25.631" y2="28.1461" gradientUnits="userSpaceOnUse">
<stop stop-color="#FFE000"/>
<stop offset="0.4087" stop-color="#FFBD00"/>
<stop offset="0.7754" stop-color="#FFA500"/>
<stop offset="1" stop-color="#FF9C00"/>
</linearGradient>
<linearGradient id="paint2_linear_1_1203" x1="42.3406" y1="30.6693" x2="17.3063" y2="55.7037" gradientUnits="userSpaceOnUse">
<stop stop-color="#FF3A44"/>
<stop offset="1" stop-color="#C31162"/>
</linearGradient>
<linearGradient id="paint3_linear_1_1203" x1="23.0568" y1="6.33946" x2="34.2354" y2="17.518" gradientUnits="userSpaceOnUse">
<stop stop-color="#32A071"/>
<stop offset="0.0685" stop-color="#2DA771"/>
<stop offset="0.4762" stop-color="#15CF74"/>
<stop offset="0.8009" stop-color="#06E775"/>
<stop offset="1" stop-color="#00F076"/>
</linearGradient>
</defs>
</svg>
